<svg width="23" height="23" viewBox="0 0 23 23" fill="none" xmlns="http://www.w3.org/2000/svg">
<path d="M22.9878 11.7151C22.9878 10.7728 22.9095 10.0852 22.7402 9.37207H11.729V13.6251H18.1923C18.0621 14.6821 17.3584 16.2738 15.7946 17.3434L15.7727 17.4858L19.2543 20.1214L19.4955 20.1449C21.7107 18.1457 22.9878 15.2041 22.9878 11.7151Z" fill="#4285F4"/>
<path d="M11.7289 22.9209C14.8954 22.9209 17.5537 21.9021 19.4954 20.1449L15.7945 17.3434C14.8042 18.0183 13.475 18.4895 11.7289 18.4895C8.62754 18.4895 5.9953 16.4903 5.05698 13.7271L4.91945 13.7385L1.2993 16.4763L1.25195 16.6049C3.18052 20.3486 7.14195 22.9209 11.7289 22.9209Z" fill="#34A853"/>
<path d="M5.05695 13.7272C4.80937 13.0141 4.66608 12.25 4.66608 11.4605C4.66608 10.671 4.80937 9.90698 5.04393 9.1939L5.03737 9.04203L1.37185 6.26025L1.25192 6.316C0.457066 7.86955 0.000976562 9.61413 0.000976562 11.4605C0.000976562 13.3069 0.457066 15.0514 1.25192 16.605L5.05695 13.7272Z" fill="#FBBC05"/>
<path d="M11.7289 4.43136C13.9311 4.43136 15.4166 5.36093 16.2637 6.13775L19.5735 2.97973C17.5407 1.13332 14.8954 0 11.7289 0C7.14195 0 3.18052 2.57222 1.25195 6.31596L5.04396 9.19385C5.99531 6.4306 8.62755 4.43136 11.7289 4.43136Z" fill="#EB4335"/>
</svg>
