<svg width="21" height="21" viewBox="0 0 21 21" fill="none" xmlns="http://www.w3.org/2000/svg">
<path d="M16.8421 9.30776H11.1816C10.8063 9.30776 10.4463 9.45687 10.1809 9.72228C9.91556 9.98769 9.76647 10.3477 9.76647 10.723V14.9688H1.9833V6.90183L10.474 2.33055L19.3398 7.09996L20.0049 5.85454L10.8066 0.901144C10.7042 0.846628 10.59 0.818115 10.474 0.818115C10.358 0.818115 10.2438 0.846628 10.1415 0.901144L0.943191 5.85454C0.830208 5.9147 0.735662 6.00439 0.669622 6.11405C0.603583 6.22371 0.568525 6.34924 0.568184 6.47725V20.6298H1.9833V16.384H18.9648V20.6298H20.3799V12.8459C20.3799 11.9075 20.0071 11.0076 19.3437 10.3441C18.6802 9.68053 17.7804 9.30776 16.8421 9.30776ZM11.1816 14.9688V10.723H16.8421C17.405 10.723 17.945 10.9467 18.343 11.3448C18.7411 11.7429 18.9648 12.2829 18.9648 12.8459V14.9688H11.1816Z" fill="#333333"/>
</svg>
