<svg width="133" height="21" viewBox="0 0 133 21" fill="none" xmlns="http://www.w3.org/2000/svg">
<path d="M35.376 19L34.6514 16.6211H31.0078L30.2832 19H28L31.5273 8.96484H34.1182L37.6592 19H35.376ZM34.1455 14.8438L33.4209 12.5195C33.3753 12.3646 33.3138 12.1663 33.2363 11.9248C33.1634 11.6787 33.0882 11.4303 33.0107 11.1797C32.9378 10.9245 32.8786 10.7035 32.833 10.5166C32.7874 10.7035 32.7236 10.9359 32.6416 11.2139C32.5641 11.4873 32.4889 11.7471 32.416 11.9932C32.3431 12.2393 32.2907 12.4147 32.2588 12.5195L31.541 14.8438H34.1455ZM41.8633 19.1367C41.1068 19.1367 40.4619 19 39.9287 18.7266C39.3955 18.4486 38.9899 18.0202 38.7119 17.4414C38.4339 16.8626 38.2949 16.1221 38.2949 15.2197C38.2949 14.2855 38.4521 13.5244 38.7666 12.9365C39.0856 12.3441 39.5254 11.9089 40.0859 11.6309C40.651 11.3529 41.305 11.2139 42.0479 11.2139C42.5765 11.2139 43.0322 11.2663 43.415 11.3711C43.8024 11.4714 44.1396 11.5921 44.4268 11.7334L43.8115 13.3467C43.4834 13.2145 43.1781 13.1074 42.8955 13.0254C42.613 12.9388 42.3304 12.8955 42.0479 12.8955C41.6833 12.8955 41.3802 12.9821 41.1387 13.1553C40.8971 13.3239 40.7171 13.5791 40.5986 13.9209C40.4801 14.2627 40.4209 14.6911 40.4209 15.2061C40.4209 15.7119 40.4847 16.1312 40.6123 16.4639C40.7399 16.7965 40.9245 17.0449 41.166 17.209C41.4076 17.3685 41.7015 17.4482 42.0479 17.4482C42.4808 17.4482 42.8659 17.3913 43.2031 17.2773C43.5404 17.1589 43.8685 16.9948 44.1875 16.7852V18.5693C43.8685 18.7699 43.5335 18.9134 43.1826 19C42.8363 19.0911 42.3965 19.1367 41.8633 19.1367ZM49.0684 19.1367C48.3118 19.1367 47.667 19 47.1338 18.7266C46.6006 18.4486 46.195 18.0202 45.917 17.4414C45.639 16.8626 45.5 16.1221 45.5 15.2197C45.5 14.2855 45.6572 13.5244 45.9717 12.9365C46.2907 12.3441 46.7305 11.9089 47.291 11.6309C47.8561 11.3529 48.5101 11.2139 49.2529 11.2139C49.7816 11.2139 50.2373 11.2663 50.6201 11.3711C51.0075 11.4714 51.3447 11.5921 51.6318 11.7334L51.0166 13.3467C50.6885 13.2145 50.3831 13.1074 50.1006 13.0254C49.818 12.9388 49.5355 12.8955 49.2529 12.8955C48.8883 12.8955 48.5853 12.9821 48.3438 13.1553C48.1022 13.3239 47.9222 13.5791 47.8037 13.9209C47.6852 14.2627 47.626 14.6911 47.626 15.2061C47.626 15.7119 47.6898 16.1312 47.8174 16.4639C47.945 16.7965 48.1296 17.0449 48.3711 17.209C48.6126 17.3685 48.9066 17.4482 49.2529 17.4482C49.6859 17.4482 50.071 17.3913 50.4082 17.2773C50.7454 17.1589 51.0736 16.9948 51.3926 16.7852V18.5693C51.0736 18.7699 50.7386 18.9134 50.3877 19C50.0413 19.0911 49.6016 19.1367 49.0684 19.1367ZM60.1152 15.165C60.1152 15.8031 60.0286 16.3682 59.8555 16.8604C59.6868 17.3525 59.4385 17.7695 59.1104 18.1113C58.7868 18.4486 58.3949 18.7038 57.9346 18.877C57.4788 19.0501 56.9639 19.1367 56.3896 19.1367C55.8519 19.1367 55.3574 19.0501 54.9062 18.877C54.4596 18.7038 54.07 18.4486 53.7373 18.1113C53.4092 17.7695 53.154 17.3525 52.9717 16.8604C52.7939 16.3682 52.7051 15.8031 52.7051 15.165C52.7051 14.3174 52.8555 13.5996 53.1562 13.0117C53.457 12.4238 53.8854 11.9772 54.4414 11.6719C54.9974 11.3665 55.6605 11.2139 56.4307 11.2139C57.1462 11.2139 57.7796 11.3665 58.3311 11.6719C58.887 11.9772 59.3223 12.4238 59.6367 13.0117C59.9557 13.5996 60.1152 14.3174 60.1152 15.165ZM54.8311 15.165C54.8311 15.6663 54.8857 16.0879 54.9951 16.4297C55.1045 16.7715 55.2754 17.029 55.5078 17.2021C55.7402 17.3753 56.0433 17.4619 56.417 17.4619C56.7861 17.4619 57.0846 17.3753 57.3125 17.2021C57.5449 17.029 57.7135 16.7715 57.8184 16.4297C57.9277 16.0879 57.9824 15.6663 57.9824 15.165C57.9824 14.6592 57.9277 14.2399 57.8184 13.9072C57.7135 13.57 57.5449 13.3171 57.3125 13.1484C57.0801 12.9798 56.777 12.8955 56.4033 12.8955C55.8519 12.8955 55.4508 13.0846 55.2002 13.4629C54.9541 13.8411 54.8311 14.4085 54.8311 15.165ZM70.8135 11.2139C71.6794 11.2139 72.3333 11.4372 72.7754 11.8838C73.222 12.3258 73.4453 13.0368 73.4453 14.0166V19H71.3535V14.5361C71.3535 13.9893 71.2601 13.5768 71.0732 13.2988C70.8864 13.0208 70.597 12.8818 70.2051 12.8818C69.6536 12.8818 69.2617 13.0801 69.0293 13.4766C68.7969 13.8685 68.6807 14.4313 68.6807 15.165V19H66.5957V14.5361C66.5957 14.1715 66.5547 13.8662 66.4727 13.6201C66.3906 13.374 66.2653 13.1895 66.0967 13.0664C65.9281 12.9434 65.7116 12.8818 65.4473 12.8818C65.0599 12.8818 64.7546 12.9798 64.5312 13.1758C64.3125 13.3672 64.1553 13.652 64.0596 14.0303C63.9684 14.404 63.9229 14.862 63.9229 15.4043V19H61.8379V11.3574H63.4307L63.7109 12.335H63.8271C63.9821 12.0706 64.1758 11.8564 64.4082 11.6924C64.6452 11.5283 64.9049 11.4076 65.1875 11.3301C65.4701 11.2526 65.7572 11.2139 66.0488 11.2139C66.6094 11.2139 67.0833 11.305 67.4707 11.4873C67.8626 11.6696 68.1634 11.9521 68.373 12.335H68.5576C68.7855 11.943 69.1068 11.6582 69.5215 11.4805C69.9408 11.3027 70.3714 11.2139 70.8135 11.2139ZM82.5371 15.165C82.5371 15.8031 82.4505 16.3682 82.2773 16.8604C82.1087 17.3525 81.8604 17.7695 81.5322 18.1113C81.2087 18.4486 80.8167 18.7038 80.3564 18.877C79.9007 19.0501 79.3857 19.1367 78.8115 19.1367C78.2738 19.1367 77.7793 19.0501 77.3281 18.877C76.8815 18.7038 76.4919 18.4486 76.1592 18.1113C75.8311 17.7695 75.5758 17.3525 75.3936 16.8604C75.2158 16.3682 75.127 15.8031 75.127 15.165C75.127 14.3174 75.2773 13.5996 75.5781 13.0117C75.8789 12.4238 76.3073 11.9772 76.8633 11.6719C77.4193 11.3665 78.0824 11.2139 78.8525 11.2139C79.568 11.2139 80.2015 11.3665 80.7529 11.6719C81.3089 11.9772 81.7441 12.4238 82.0586 13.0117C82.3776 13.5996 82.5371 14.3174 82.5371 15.165ZM77.2529 15.165C77.2529 15.6663 77.3076 16.0879 77.417 16.4297C77.5264 16.7715 77.6973 17.029 77.9297 17.2021C78.1621 17.3753 78.4652 17.4619 78.8389 17.4619C79.208 17.4619 79.5065 17.3753 79.7344 17.2021C79.9668 17.029 80.1354 16.7715 80.2402 16.4297C80.3496 16.0879 80.4043 15.6663 80.4043 15.165C80.4043 14.6592 80.3496 14.2399 80.2402 13.9072C80.1354 13.57 79.9668 13.3171 79.7344 13.1484C79.502 12.9798 79.1989 12.8955 78.8252 12.8955C78.2738 12.8955 77.8727 13.0846 77.6221 13.4629C77.376 13.8411 77.2529 14.4085 77.2529 15.165ZM86.6797 19.1367C85.8275 19.1367 85.1325 18.804 84.5947 18.1387C84.0615 17.4688 83.7949 16.4867 83.7949 15.1924C83.7949 13.8844 84.0661 12.8955 84.6084 12.2256C85.1507 11.5511 85.8594 11.2139 86.7344 11.2139C87.099 11.2139 87.4202 11.264 87.6982 11.3643C87.9762 11.4645 88.2155 11.599 88.416 11.7676C88.6211 11.9362 88.7943 12.1253 88.9355 12.335H89.0039C88.9766 12.1891 88.9424 11.9749 88.9014 11.6924C88.8649 11.4053 88.8467 11.1113 88.8467 10.8105V8.36328H90.9385V19H89.3389L88.9355 18.0088H88.8467C88.7145 18.2184 88.5482 18.4098 88.3477 18.583C88.1517 18.7516 87.917 18.8861 87.6436 18.9863C87.3701 19.0866 87.0488 19.1367 86.6797 19.1367ZM87.4111 17.4756C87.9808 17.4756 88.3818 17.307 88.6143 16.9697C88.8512 16.6279 88.9766 16.1152 88.9902 15.4316V15.2061C88.9902 14.4632 88.8763 13.8958 88.6484 13.5039C88.4206 13.1074 87.9967 12.9092 87.377 12.9092C86.9167 12.9092 86.5566 13.1074 86.2969 13.5039C86.0371 13.9004 85.9072 14.4723 85.9072 15.2197C85.9072 15.9671 86.0371 16.5299 86.2969 16.9082C86.5612 17.2865 86.9326 17.4756 87.4111 17.4756ZM96.25 11.2002C97.2754 11.2002 98.0615 11.4235 98.6084 11.8701C99.1553 12.3167 99.4287 12.9958 99.4287 13.9072V19H97.9727L97.5693 17.9609H97.5146C97.2959 18.2344 97.0726 18.4577 96.8447 18.6309C96.6169 18.804 96.3548 18.9316 96.0586 19.0137C95.7624 19.0957 95.4023 19.1367 94.9785 19.1367C94.5273 19.1367 94.1217 19.0501 93.7617 18.877C93.4062 18.7038 93.126 18.4395 92.9209 18.084C92.7158 17.724 92.6133 17.2682 92.6133 16.7168C92.6133 15.9056 92.8981 15.3086 93.4678 14.9258C94.0374 14.5384 94.8919 14.3242 96.0312 14.2832L97.3574 14.2422V13.9072C97.3574 13.5062 97.2526 13.2122 97.043 13.0254C96.8333 12.8385 96.5417 12.7451 96.168 12.7451C95.7988 12.7451 95.4365 12.7975 95.0811 12.9023C94.7256 13.0072 94.3701 13.1393 94.0146 13.2988L93.3242 11.8906C93.7298 11.6764 94.1833 11.5078 94.6846 11.3848C95.1904 11.2617 95.7122 11.2002 96.25 11.2002ZM97.3574 15.459L96.5508 15.4863C95.8763 15.5046 95.4069 15.6253 95.1426 15.8486C94.8828 16.0719 94.7529 16.3659 94.7529 16.7305C94.7529 17.0495 94.8464 17.2773 95.0332 17.4141C95.2201 17.5462 95.4639 17.6123 95.7646 17.6123C96.2113 17.6123 96.5872 17.4801 96.8926 17.2158C97.2025 16.9515 97.3574 16.5755 97.3574 16.0879V15.459ZM104.802 17.4756C105.03 17.4756 105.251 17.4528 105.465 17.4072C105.684 17.3617 105.9 17.3047 106.114 17.2363V18.7881C105.891 18.8883 105.613 18.9704 105.28 19.0342C104.952 19.1025 104.592 19.1367 104.2 19.1367C103.744 19.1367 103.334 19.0638 102.97 18.918C102.61 18.7676 102.325 18.5101 102.115 18.1455C101.91 17.7764 101.808 17.2637 101.808 16.6074V12.9229H100.81V12.041L101.958 11.3438L102.56 9.73047H103.893V11.3574H106.032V12.9229H103.893V16.6074C103.893 16.8991 103.975 17.1178 104.139 17.2637C104.307 17.4049 104.528 17.4756 104.802 17.4756ZM109.751 11.3574V19H107.666V11.3574H109.751ZM108.712 8.36328C109.022 8.36328 109.288 8.4362 109.512 8.58203C109.735 8.72331 109.847 8.98991 109.847 9.38184C109.847 9.76921 109.735 10.0381 109.512 10.1885C109.288 10.3343 109.022 10.4072 108.712 10.4072C108.397 10.4072 108.129 10.3343 107.905 10.1885C107.687 10.0381 107.577 9.76921 107.577 9.38184C107.577 8.98991 107.687 8.72331 107.905 8.58203C108.129 8.4362 108.397 8.36328 108.712 8.36328ZM118.891 15.165C118.891 15.8031 118.804 16.3682 118.631 16.8604C118.462 17.3525 118.214 17.7695 117.886 18.1113C117.562 18.4486 117.17 18.7038 116.71 18.877C116.254 19.0501 115.739 19.1367 115.165 19.1367C114.627 19.1367 114.133 19.0501 113.682 18.877C113.235 18.7038 112.845 18.4486 112.513 18.1113C112.185 17.7695 111.929 17.3525 111.747 16.8604C111.569 16.3682 111.48 15.8031 111.48 15.165C111.48 14.3174 111.631 13.5996 111.932 13.0117C112.232 12.4238 112.661 11.9772 113.217 11.6719C113.773 11.3665 114.436 11.2139 115.206 11.2139C115.922 11.2139 116.555 11.3665 117.106 11.6719C117.662 11.9772 118.098 12.4238 118.412 13.0117C118.731 13.5996 118.891 14.3174 118.891 15.165ZM113.606 15.165C113.606 15.6663 113.661 16.0879 113.771 16.4297C113.88 16.7715 114.051 17.029 114.283 17.2021C114.516 17.3753 114.819 17.4619 115.192 17.4619C115.562 17.4619 115.86 17.3753 116.088 17.2021C116.32 17.029 116.489 16.7715 116.594 16.4297C116.703 16.0879 116.758 15.6663 116.758 15.165C116.758 14.6592 116.703 14.2399 116.594 13.9072C116.489 13.57 116.32 13.3171 116.088 13.1484C115.855 12.9798 115.552 12.8955 115.179 12.8955C114.627 12.8955 114.226 13.0846 113.976 13.4629C113.729 13.8411 113.606 14.4085 113.606 15.165ZM124.954 11.2139C125.77 11.2139 126.426 11.4372 126.923 11.8838C127.42 12.3258 127.668 13.0368 127.668 14.0166V19H125.583V14.5361C125.583 13.9893 125.483 13.5768 125.282 13.2988C125.086 13.0208 124.776 12.8818 124.353 12.8818C123.715 12.8818 123.279 13.0983 123.047 13.5312C122.814 13.9642 122.698 14.5885 122.698 15.4043V19H120.613V11.3574H122.206L122.486 12.335H122.603C122.767 12.0706 122.969 11.8564 123.211 11.6924C123.457 11.5283 123.728 11.4076 124.024 11.3301C124.325 11.2526 124.635 11.2139 124.954 11.2139Z" fill="black"/>
<path d="M17.25 8.99886H11.25C10.8522 8.99886 10.4706 9.15691 10.1893 9.43824C9.90803 9.71957 9.75 10.1011 9.75 10.499V14.9994H1.5V6.44861L10.5 1.60315L19.8975 6.65863L20.6025 5.33851L10.8525 0.0880084C10.744 0.0302228 10.6229 0 10.5 0C10.3771 0 10.256 0.0302228 10.1475 0.0880084L0.3975 5.33851C0.277741 5.40228 0.177523 5.49735 0.107523 5.61359C0.0375226 5.72983 0.000362033 5.86288 0 5.99857V21H1.5V16.4996H19.5V21H21V12.7492C21 11.7546 20.6049 10.8006 19.9016 10.0973C19.1984 9.39398 18.2446 8.99886 17.25 8.99886ZM11.25 14.9994V10.499H17.25C17.8467 10.499 18.419 10.7361 18.841 11.1581C19.2629 11.5801 19.5 12.1524 19.5 12.7492V14.9994H11.25Z" fill="black"/>
</svg>
