<svg width="21" height="21" viewBox="0 0 21 21" fill="none" xmlns="http://www.w3.org/2000/svg">
<path d="M17.25 8.99886H11.25C10.8522 8.99886 10.4706 9.15691 10.1893 9.43824C9.90804 9.71957 9.75 10.1011 9.75 10.499V14.9994H1.5V6.44861L10.5 1.60315L19.8975 6.65863L20.6025 5.33851L10.8525 0.0880084C10.744 0.0302228 10.6229 0 10.5 0C10.3771 0 10.256 0.0302228 10.1475 0.0880084L0.3975 5.33851C0.277741 5.40228 0.177523 5.49735 0.107523 5.61359C0.0375226 5.72983 0.000362033 5.86288 0 5.99857V21H1.5V16.4996H19.5V21H21V12.7492C21 11.7546 20.6049 10.8006 19.9016 10.0973C19.1984 9.39398 18.2446 8.99886 17.25 8.99886ZM11.25 14.9994V10.499H17.25C17.8467 10.499 18.419 10.7361 18.841 11.1581C19.2629 11.5801 19.5 12.1524 19.5 12.7492V14.9994H11.25Z" fill="white"/>
</svg>
