<svg width="14" height="24" viewBox="0 0 14 24" fill="none" xmlns="http://www.w3.org/2000/svg">
<path d="M0.609259 0.612005C0.416126 0.804742 0.262902 1.03368 0.158358 1.2857C0.0538129 1.53773 0 1.8079 0 2.08075C0 2.35361 0.0538129 2.62378 0.158358 2.87581C0.262902 3.12783 0.416126 3.35677 0.609259 3.5495L8.69259 11.6328L0.609259 19.7162C0.219722 20.1057 0.000882149 20.634 0.000882149 21.1849C0.000882149 21.7358 0.219722 22.2641 0.609259 22.6537C0.998796 23.0432 1.52712 23.262 2.07801 23.262C2.6289 23.262 3.15722 23.0432 3.54676 22.6537L13.1093 13.0912C13.3024 12.8984 13.4556 12.6695 13.5602 12.4175C13.6647 12.1654 13.7185 11.8953 13.7185 11.6224C13.7185 11.3496 13.6647 11.0794 13.5602 10.8274C13.4556 10.5753 13.3024 10.3464 13.1093 10.1537L3.54676 0.591171C2.75509 -0.200496 1.42176 -0.200495 0.609259 0.612005Z" fill="#191919"/>
</svg>
