<svg width="13" height="18" viewBox="0 0 13 18" fill="none" xmlns="http://www.w3.org/2000/svg">
<path d="M1.45024e-07 2.24995V17.4371C-6.86766e-05 17.5348 0.0243582 17.6308 0.0708766 17.7157C0.117395 17.8006 0.184401 17.8714 0.265299 17.9213C0.346198 17.9711 0.438199 17.9982 0.532247 17.9999C0.626295 18.0016 0.719149 17.9778 0.801667 17.931L6.5 14.7023L12.1983 17.931C12.2809 17.9778 12.3737 18.0016 12.4678 17.9999C12.5618 17.9982 12.6538 17.9711 12.7347 17.9213C12.8156 17.8714 12.8826 17.8006 12.9291 17.7157C12.9756 17.6308 13.0001 17.5348 13 17.4371V2.24995C13 1.65323 12.7717 1.08094 12.3654 0.658995C11.9591 0.237048 11.408 0 10.8333 0L2.16667 0C1.59203 0 1.04093 0.237048 0.634602 0.658995C0.228273 1.08094 1.45024e-07 1.65323 1.45024e-07 2.24995Z" fill="white" fill-opacity="0.5"/>
</svg>
