<svg width="14" height="17" viewBox="0 0 14 17" fill="none" xmlns="http://www.w3.org/2000/svg">
<path d="M11.6527 5.82639H13.131C13.327 5.82639 13.515 5.90426 13.6536 6.04288C13.7922 6.1815 13.8701 6.3695 13.8701 6.56554V15.4353C13.8701 15.6314 13.7922 15.8194 13.6536 15.958C13.515 16.0966 13.327 16.1745 13.131 16.1745H1.30458C1.10854 16.1745 0.920539 16.0966 0.781921 15.958C0.643304 15.8194 0.56543 15.6314 0.56543 15.4353V6.56554C0.56543 6.3695 0.643304 6.1815 0.781921 6.04288C0.920539 5.90426 1.10854 5.82639 1.30458 5.82639H2.78288V5.08724C2.78288 3.91103 3.25012 2.783 4.08183 1.95129C4.91353 1.11959 6.04157 0.652344 7.21777 0.652344C8.39398 0.652344 9.52201 1.11959 10.3537 1.95129C11.1854 2.783 11.6527 3.91103 11.6527 5.08724V5.82639ZM10.1744 5.82639V5.08724C10.1744 4.3031 9.86287 3.55108 9.3084 2.99661C8.75393 2.44214 8.00191 2.13064 7.21777 2.13064C6.43364 2.13064 5.68161 2.44214 5.12714 2.99661C4.57267 3.55108 4.26118 4.3031 4.26118 5.08724V5.82639H10.1744ZM6.47862 10.2613V11.7396H7.95692V10.2613H6.47862ZM3.52203 10.2613V11.7396H5.00033V10.2613H3.52203ZM9.43522 10.2613V11.7396H10.9135V10.2613H9.43522Z" fill="#C4C4C4"/>
</svg>
