<svg width="12" height="9" viewBox="0 0 12 9" fill="none" xmlns="http://www.w3.org/2000/svg">
<path d="M5.25 9C5.25 9 4.5 9 4.5 8.25C4.5 7.5 5.25 5.25 8.25 5.25C11.25 5.25 12 7.5 12 8.25C12 9 11.25 9 11.25 9H5.25ZM8.25 4.5C8.84674 4.5 9.41903 4.26295 9.84099 3.84099C10.2629 3.41903 10.5 2.84674 10.5 2.25C10.5 1.65326 10.2629 1.08097 9.84099 0.65901C9.41903 0.237053 8.84674 0 8.25 0C7.65326 0 7.08097 0.237053 6.65901 0.65901C6.23705 1.08097 6 1.65326 6 2.25C6 2.84674 6.23705 3.41903 6.65901 3.84099C7.08097 4.26295 7.65326 4.5 8.25 4.5Z" fill="white"/>
<path fill-rule="evenodd" clip-rule="evenodd" d="M3.912 9.00008C3.80082 8.76594 3.74537 8.50923 3.75 8.25008C3.75 7.23383 4.26 6.18758 5.202 5.46008C4.73182 5.3152 4.24196 5.24436 3.75 5.25008C0.75 5.25008 0 7.50008 0 8.25008C0 9.00008 0.75 9.00008 0.75 9.00008H3.912Z" fill="white"/>
<path d="M3.375 4.5C3.87228 4.5 4.34919 4.30246 4.70083 3.95083C5.05246 3.59919 5.25 3.12228 5.25 2.625C5.25 2.12772 5.05246 1.65081 4.70083 1.29917C4.34919 0.947544 3.87228 0.75 3.375 0.75C2.87772 0.75 2.40081 0.947544 2.04917 1.29917C1.69754 1.65081 1.5 2.12772 1.5 2.625C1.5 3.12228 1.69754 3.59919 2.04917 3.95083C2.40081 4.30246 2.87772 4.5 3.375 4.5Z" fill="white"/>
</svg>
