<svg width="24" height="18" viewBox="0 0 24 18" fill="none" xmlns="http://www.w3.org/2000/svg">
<path d="M10.0925 18C10.0925 18 8.6507 18 8.6507 16.5471C8.6507 15.0942 10.0925 10.7355 15.8597 10.7355C21.6269 10.7355 23.0687 15.0942 23.0687 16.5471C23.0687 18 21.6269 18 21.6269 18H10.0925ZM15.8597 9.28258C17.0069 9.28258 18.1071 8.82336 18.9182 8.00594C19.7294 7.18853 20.1851 6.07988 20.1851 4.92388C20.1851 3.76788 19.7294 2.65923 18.9182 1.84182C18.1071 1.0244 17.0069 0.565186 15.8597 0.565186C14.7125 0.565186 13.6124 1.0244 12.8012 1.84182C11.99 2.65923 11.5343 3.76788 11.5343 4.92388C11.5343 6.07988 11.99 7.18853 12.8012 8.00594C13.6124 8.82336 14.7125 9.28258 15.8597 9.28258Z" fill="#333333"/>
<path fill-rule="evenodd" clip-rule="evenodd" d="M7.52045 18C7.30671 17.5464 7.20011 17.0491 7.20902 16.5471C7.20902 14.5784 8.18944 12.5516 10.0003 11.1423C9.09647 10.8616 8.15477 10.7244 7.20902 10.7355C1.4418 10.7355 0 15.0942 0 16.5471C0 18 1.4418 18 1.4418 18H7.52045Z" fill="#333333"/>
<path d="M6.48793 9.28256C7.44391 9.28256 8.36073 8.89988 9.0367 8.2187C9.71268 7.53752 10.0924 6.61365 10.0924 5.65031C10.0924 4.68698 9.71268 3.76311 9.0367 3.08193C8.36073 2.40075 7.44391 2.01807 6.48793 2.01807C5.53196 2.01807 4.61514 2.40075 3.93916 3.08193C3.26318 3.76311 2.88342 4.68698 2.88342 5.65031C2.88342 6.61365 3.26318 7.53752 3.93916 8.2187C4.61514 8.89988 5.53196 9.28256 6.48793 9.28256Z" fill="#333333"/>
</svg>
