<svg width="18" height="22" viewBox="0 0 18 22" fill="none" xmlns="http://www.w3.org/2000/svg">
<path d="M9.04468 0C11.2982 0.00270323 13.4587 0.914156 15.0521 2.53442C16.6456 4.15468 17.542 6.35146 17.5447 8.64286C17.5474 10.5154 16.9458 12.3371 15.8323 13.8286C15.8323 13.8286 15.6005 14.1389 15.5626 14.1837L9.04468 22L2.52364 14.1798C2.48964 14.1381 2.25705 13.8286 2.25705 13.8286L2.25628 13.8262C1.14331 12.3354 0.542046 10.5145 0.544687 8.64286C0.547346 6.35146 1.44373 4.15468 3.03721 2.53442C4.6307 0.914156 6.79116 0.00270323 9.04468 0ZM9.04468 11.7857C9.656 11.7857 10.2536 11.6014 10.7619 11.256C11.2702 10.9107 11.6664 10.4199 11.9003 9.84558C12.1342 9.27129 12.1955 8.63937 12.0762 8.02972C11.9569 7.42006 11.6625 6.86006 11.2303 6.42052C10.798 5.98099 10.2473 5.68166 9.64768 5.56039C9.04811 5.43912 8.42663 5.50136 7.86184 5.73924C7.29705 5.97711 6.81432 6.37994 6.47468 6.89678C6.13505 7.41362 5.95377 8.02126 5.95377 8.64286C5.95479 9.47608 6.28077 10.2749 6.86021 10.864C7.43964 11.4532 8.22523 11.7847 9.04468 11.7857Z" fill="#333333"/>
</svg>
