<svg width="8" height="10" viewBox="0 0 8 10" fill="none" xmlns="http://www.w3.org/2000/svg">
<path d="M4 0C5.06048 0.00122874 6.07717 0.415525 6.82704 1.15201C7.57692 1.88849 7.99874 2.88703 8 3.92857C8.00127 4.77972 7.71818 5.60778 7.19418 6.28571C7.19418 6.28571 7.08509 6.42679 7.06727 6.44714L4 10L0.931276 6.44536C0.915276 6.42643 0.805821 6.28571 0.805821 6.28571L0.805458 6.28464C0.281712 5.607 -0.00123882 4.77933 4.29153e-06 3.92857C0.00125504 2.88703 0.423084 1.88849 1.17296 1.15201C1.92283 0.415525 2.93952 0.00122874 4 0ZM4 5.35714C4.28768 5.35714 4.5689 5.27336 4.8081 5.11638C5.0473 4.95941 5.23373 4.7363 5.34382 4.47526C5.45391 4.21422 5.48272 3.92699 5.4266 3.64987C5.37047 3.37276 5.23194 3.11821 5.02852 2.91842C4.8251 2.71863 4.56592 2.58257 4.28377 2.52745C4.00161 2.47233 3.70915 2.50062 3.44337 2.60874C3.17759 2.71687 2.95042 2.89997 2.79059 3.1349C2.63076 3.36983 2.54546 3.64603 2.54546 3.92857C2.54594 4.30731 2.69934 4.6704 2.97201 4.9382C3.24469 5.20601 3.61438 5.35667 4 5.35714Z" fill="white"/>
</svg>
