<svg width="68" height="22" viewBox="0 0 68 22" fill="none" xmlns="http://www.w3.org/2000/svg">
<path d="M16.8721 21.3835L18.9304 19.8364L17.888 7.73547L23.5483 3.48105C24.4026 2.83902 24.5738 1.63122 23.9318 0.777016C23.2898 -0.0771866 22.082 -0.248458 21.2278 0.393573L15.5674 4.64799L4.23334 0.282369L2.17502 1.82943L10.9362 8.12888L5.27578 12.3833L2.18498 11.4853L0.641243 12.6456L4.37776 15.4741L6.05596 19.8497L7.5997 18.6894L7.59638 15.4708L13.2568 11.2164L16.8721 21.3835Z" fill="black"/>
<path d="M32.3428 17H30.2578V7.00586H35.9863V8.74219H32.3428V11.3193H35.7334V13.0488H32.3428V17ZM39.8623 17H37.7773V6.36328H39.8623V17ZM44.1416 9.35742V17H42.0566V9.35742H44.1416ZM43.1025 6.36328C43.4124 6.36328 43.679 6.4362 43.9023 6.58203C44.1257 6.72331 44.2373 6.98991 44.2373 7.38184C44.2373 7.76921 44.1257 8.03809 43.9023 8.18848C43.679 8.33431 43.4124 8.40723 43.1025 8.40723C42.7881 8.40723 42.5192 8.33431 42.2959 8.18848C42.0771 8.03809 41.9678 7.76921 41.9678 7.38184C41.9678 6.98991 42.0771 6.72331 42.2959 6.58203C42.5192 6.4362 42.7881 6.36328 43.1025 6.36328ZM48.5713 20.3633C47.5049 20.3633 46.6891 20.1764 46.124 19.8027C45.5635 19.4336 45.2832 18.9141 45.2832 18.2441C45.2832 17.7839 45.4268 17.3988 45.7139 17.0889C46.001 16.779 46.4225 16.5579 46.9785 16.4258C46.7643 16.3346 46.5775 16.1865 46.418 15.9814C46.2585 15.7718 46.1787 15.5508 46.1787 15.3184C46.1787 15.0267 46.263 14.7852 46.4316 14.5938C46.6003 14.3978 46.8441 14.2064 47.1631 14.0195C46.762 13.8464 46.443 13.5684 46.2061 13.1855C45.9736 12.8027 45.8574 12.3516 45.8574 11.832C45.8574 11.276 45.9782 10.8044 46.2197 10.417C46.4658 10.0251 46.8213 9.72656 47.2861 9.52148C47.7555 9.31641 48.3252 9.21387 48.9951 9.21387C49.1364 9.21387 49.3005 9.22298 49.4873 9.24121C49.6742 9.25944 49.8451 9.27995 50 9.30273C50.1595 9.32552 50.2666 9.34375 50.3213 9.35742H52.9873V10.417L51.791 10.7246C51.9004 10.8932 51.9824 11.0732 52.0371 11.2646C52.0918 11.4561 52.1191 11.6589 52.1191 11.873C52.1191 12.6934 51.832 13.3337 51.2578 13.7939C50.6882 14.2497 49.8952 14.4775 48.8789 14.4775C48.6374 14.4639 48.4095 14.4456 48.1953 14.4229C48.0905 14.5049 48.0107 14.5915 47.9561 14.6826C47.9014 14.7738 47.874 14.8695 47.874 14.9697C47.874 15.07 47.915 15.1543 47.9971 15.2227C48.0837 15.2865 48.2113 15.3366 48.3799 15.373C48.5531 15.4049 48.7673 15.4209 49.0225 15.4209H50.3213C51.1598 15.4209 51.7979 15.6009 52.2354 15.9609C52.6774 16.321 52.8984 16.8496 52.8984 17.5469C52.8984 18.4401 52.5247 19.1328 51.7773 19.625C51.0345 20.1172 49.9658 20.3633 48.5713 20.3633ZM48.6602 19.0029C49.1569 19.0029 49.583 18.9551 49.9385 18.8594C50.2985 18.7682 50.5742 18.6361 50.7656 18.4629C50.957 18.2943 51.0527 18.0915 51.0527 17.8545C51.0527 17.6631 50.9958 17.5104 50.8818 17.3965C50.7725 17.2871 50.6038 17.2096 50.376 17.1641C50.1527 17.1185 49.8656 17.0957 49.5146 17.0957H48.4346C48.1794 17.0957 47.9492 17.1367 47.7441 17.2188C47.5436 17.3008 47.3841 17.4147 47.2656 17.5605C47.1471 17.7109 47.0879 17.8841 47.0879 18.0801C47.0879 18.3672 47.2246 18.5928 47.498 18.7568C47.776 18.9209 48.1634 19.0029 48.6602 19.0029ZM48.9951 13.2061C49.387 13.2061 49.6742 13.0853 49.8564 12.8438C50.0387 12.6022 50.1299 12.2741 50.1299 11.8594C50.1299 11.3991 50.0342 11.055 49.8428 10.8271C49.6559 10.5947 49.3734 10.4785 48.9951 10.4785C48.6123 10.4785 48.3252 10.5947 48.1338 10.8271C47.9424 11.055 47.8467 11.3991 47.8467 11.8594C47.8467 12.2741 47.9401 12.6022 48.127 12.8438C48.3184 13.0853 48.6077 13.2061 48.9951 13.2061ZM56.3369 6.36328V8.53027C56.3369 8.90853 56.3232 9.26855 56.2959 9.61035C56.2731 9.95215 56.2549 10.1937 56.2412 10.335H56.3506C56.5146 10.0706 56.7083 9.85645 56.9316 9.69238C57.1595 9.52832 57.4102 9.40755 57.6836 9.33008C57.957 9.2526 58.251 9.21387 58.5654 9.21387C59.1169 9.21387 59.5977 9.31185 60.0078 9.50781C60.418 9.69922 60.737 10.0023 60.9648 10.417C61.1927 10.8271 61.3066 11.3604 61.3066 12.0166V17H59.2217V12.5361C59.2217 11.9893 59.1214 11.5768 58.9209 11.2988C58.7204 11.0208 58.4105 10.8818 57.9912 10.8818C57.5719 10.8818 57.2415 10.9798 57 11.1758C56.7585 11.3672 56.5876 11.652 56.4873 12.0303C56.387 12.404 56.3369 12.862 56.3369 13.4043V17H54.252V6.36328H56.3369ZM66.6729 15.4756C66.9007 15.4756 67.1217 15.4528 67.3359 15.4072C67.5547 15.3617 67.7712 15.3047 67.9854 15.2363V16.7881C67.762 16.8883 67.484 16.9704 67.1514 17.0342C66.8232 17.1025 66.4632 17.1367 66.0713 17.1367C65.6156 17.1367 65.2054 17.0638 64.8408 16.918C64.4808 16.7676 64.196 16.5101 63.9863 16.1455C63.7812 15.7764 63.6787 15.2637 63.6787 14.6074V10.9229H62.6807V10.041L63.8291 9.34375L64.4307 7.73047H65.7637V9.35742H67.9033V10.9229H65.7637V14.6074C65.7637 14.8991 65.8457 15.1178 66.0098 15.2637C66.1784 15.4049 66.3994 15.4756 66.6729 15.4756Z" fill="black"/>
</svg>
