<svg width="19" height="19" viewBox="0 0 19 19" fill="none" xmlns="http://www.w3.org/2000/svg">
<path fill-rule="evenodd" clip-rule="evenodd" d="M13.2518 11.9161H12.4231L12.1294 11.6329C13.1573 10.4371 13.7762 8.88468 13.7762 7.19587C13.7762 3.43013 10.7238 0.377686 6.95804 0.377686C3.19231 0.377686 0.139862 3.43013 0.139862 7.19587C0.139862 10.9616 3.19231 14.0141 6.95804 14.0141C8.64686 14.0141 10.1993 13.3952 11.3951 12.3672L11.6783 12.6609V13.4896L16.9231 18.7238L18.486 17.1609L13.2518 11.9161ZM6.95804 11.9161C4.34616 11.9161 2.23776 9.80776 2.23776 7.19587C2.23776 4.58398 4.34616 2.47559 6.95804 2.47559C9.56993 2.47559 11.6783 4.58398 11.6783 7.19587C11.6783 9.80776 9.56993 11.9161 6.95804 11.9161Z" fill="#999999"/>
</svg>
