<svg width="107" height="18" viewBox="0 0 107 18" fill="none" xmlns="http://www.w3.org/2000/svg">
<path d="M26.1699 7.00586C27.0768 7.00586 27.8242 7.11523 28.4121 7.33398C29.0046 7.55273 29.4443 7.88314 29.7314 8.3252C30.0186 8.76725 30.1621 9.32552 30.1621 10C30.1621 10.4557 30.0755 10.8545 29.9023 11.1963C29.7292 11.5381 29.5013 11.8275 29.2188 12.0645C28.9362 12.3014 28.6309 12.4951 28.3027 12.6455L31.2422 17H28.8906L26.5049 13.165H25.377V17H23.2578V7.00586H26.1699ZM26.0195 8.74219H25.377V11.4424H26.0605C26.7624 11.4424 27.2637 11.3262 27.5645 11.0938C27.8698 10.8568 28.0225 10.5104 28.0225 10.0547C28.0225 9.58073 27.8584 9.24349 27.5303 9.04297C27.2067 8.84245 26.7031 8.74219 26.0195 8.74219ZM35.4873 9.21387C36.1937 9.21387 36.8021 9.35059 37.3125 9.62402C37.8229 9.8929 38.2171 10.2848 38.4951 10.7998C38.7731 11.3148 38.9121 11.9437 38.9121 12.6865V13.6982H33.9834C34.0062 14.2861 34.1816 14.7487 34.5098 15.0859C34.8424 15.4186 35.3027 15.585 35.8906 15.585C36.3783 15.585 36.8249 15.5348 37.2305 15.4346C37.6361 15.3343 38.0531 15.1839 38.4814 14.9834V16.5967C38.1032 16.7835 37.7067 16.9202 37.292 17.0068C36.8818 17.0934 36.3828 17.1367 35.7949 17.1367C35.0293 17.1367 34.3503 16.9954 33.7578 16.7129C33.1699 16.4303 32.7074 15.9997 32.3701 15.4209C32.0374 14.8421 31.8711 14.113 31.8711 13.2334C31.8711 12.3402 32.0215 11.5973 32.3223 11.0049C32.6276 10.4079 33.0514 9.96126 33.5938 9.66504C34.1361 9.36426 34.7673 9.21387 35.4873 9.21387ZM35.501 10.6973C35.0954 10.6973 34.7581 10.8271 34.4893 11.0869C34.2249 11.3467 34.0723 11.7546 34.0312 12.3105H36.957C36.9525 12.0007 36.8955 11.7249 36.7861 11.4834C36.6813 11.2419 36.5218 11.0505 36.3076 10.9092C36.098 10.7679 35.8291 10.6973 35.501 10.6973ZM45.9395 14.7305C45.9395 15.25 45.8164 15.6898 45.5703 16.0498C45.3288 16.4053 44.9665 16.6764 44.4834 16.8633C44.0003 17.0456 43.3988 17.1367 42.6787 17.1367C42.1455 17.1367 41.6875 17.1025 41.3047 17.0342C40.9264 16.9658 40.5436 16.8519 40.1562 16.6924V14.9697C40.571 15.1566 41.0153 15.3115 41.4893 15.4346C41.9678 15.5531 42.387 15.6123 42.7471 15.6123C43.1527 15.6123 43.4421 15.5531 43.6152 15.4346C43.793 15.3115 43.8818 15.152 43.8818 14.9561C43.8818 14.8285 43.8454 14.7145 43.7725 14.6143C43.7041 14.5094 43.5537 14.3932 43.3213 14.2656C43.0889 14.1335 42.7243 13.9626 42.2275 13.7529C41.749 13.5524 41.3548 13.3496 41.0449 13.1445C40.7396 12.9395 40.5117 12.6979 40.3613 12.4199C40.2155 12.1374 40.1426 11.7796 40.1426 11.3467C40.1426 10.6403 40.416 10.1094 40.9629 9.75391C41.5143 9.39388 42.2503 9.21387 43.1709 9.21387C43.6449 9.21387 44.096 9.26172 44.5244 9.35742C44.9574 9.45312 45.4017 9.60579 45.8574 9.81543L45.2285 11.3193C44.8503 11.1553 44.4925 11.0208 44.1553 10.916C43.8226 10.8112 43.4831 10.7588 43.1367 10.7588C42.8314 10.7588 42.6012 10.7998 42.4463 10.8818C42.2913 10.9639 42.2139 11.0892 42.2139 11.2578C42.2139 11.3809 42.2526 11.4902 42.3301 11.5859C42.4121 11.6816 42.5671 11.7887 42.7949 11.9072C43.0273 12.0212 43.3669 12.1693 43.8135 12.3516C44.2464 12.5293 44.6224 12.7161 44.9414 12.9121C45.2604 13.1035 45.5065 13.3428 45.6797 13.6299C45.8529 13.9124 45.9395 14.2793 45.9395 14.7305ZM50.7861 15.4756C51.014 15.4756 51.235 15.4528 51.4492 15.4072C51.668 15.3617 51.8844 15.3047 52.0986 15.2363V16.7881C51.8753 16.8883 51.5973 16.9704 51.2646 17.0342C50.9365 17.1025 50.5765 17.1367 50.1846 17.1367C49.7288 17.1367 49.3187 17.0638 48.9541 16.918C48.5941 16.7676 48.3092 16.5101 48.0996 16.1455C47.8945 15.7764 47.792 15.2637 47.792 14.6074V10.9229H46.7939V10.041L47.9424 9.34375L48.5439 7.73047H49.877V9.35742H52.0166V10.9229H49.877V14.6074C49.877 14.8991 49.959 15.1178 50.123 15.2637C50.2917 15.4049 50.5127 15.4756 50.7861 15.4756ZM56.7812 9.2002C57.8066 9.2002 58.5928 9.4235 59.1396 9.87012C59.6865 10.3167 59.96 10.9958 59.96 11.9072V17H58.5039L58.1006 15.9609H58.0459C57.8271 16.2344 57.6038 16.4577 57.376 16.6309C57.1481 16.804 56.8861 16.9316 56.5898 17.0137C56.2936 17.0957 55.9336 17.1367 55.5098 17.1367C55.0586 17.1367 54.653 17.0501 54.293 16.877C53.9375 16.7038 53.6572 16.4395 53.4521 16.084C53.2471 15.724 53.1445 15.2682 53.1445 14.7168C53.1445 13.9056 53.4294 13.3086 53.999 12.9258C54.5687 12.5384 55.4232 12.3242 56.5625 12.2832L57.8887 12.2422V11.9072C57.8887 11.5062 57.7839 11.2122 57.5742 11.0254C57.3646 10.8385 57.0729 10.7451 56.6992 10.7451C56.3301 10.7451 55.9678 10.7975 55.6123 10.9023C55.2568 11.0072 54.9014 11.1393 54.5459 11.2988L53.8555 9.89062C54.2611 9.67643 54.7145 9.50781 55.2158 9.38477C55.7217 9.26172 56.2435 9.2002 56.7812 9.2002ZM57.8887 13.459L57.082 13.4863C56.4076 13.5046 55.9382 13.6253 55.6738 13.8486C55.4141 14.0719 55.2842 14.3659 55.2842 14.7305C55.2842 15.0495 55.3776 15.2773 55.5645 15.4141C55.7513 15.5462 55.9951 15.6123 56.2959 15.6123C56.7425 15.6123 57.1185 15.4801 57.4238 15.2158C57.7337 14.9515 57.8887 14.5755 57.8887 14.0879V13.459ZM69.127 9.35742V17H67.5273L67.2471 16.0225H67.1377C66.9736 16.2822 66.7686 16.4941 66.5225 16.6582C66.2764 16.8223 66.0052 16.943 65.709 17.0205C65.4128 17.098 65.1051 17.1367 64.7861 17.1367C64.2393 17.1367 63.763 17.041 63.3574 16.8496C62.9518 16.6536 62.6351 16.3506 62.4072 15.9404C62.1839 15.5303 62.0723 14.9971 62.0723 14.3408V9.35742H64.1572V13.8213C64.1572 14.3682 64.2552 14.7806 64.4512 15.0586C64.6471 15.3366 64.9593 15.4756 65.3877 15.4756C65.8115 15.4756 66.1442 15.3799 66.3857 15.1885C66.6273 14.9925 66.7959 14.7077 66.8916 14.334C66.9919 13.9557 67.042 13.4954 67.042 12.9531V9.35742H69.127ZM75.5801 9.21387C75.6849 9.21387 75.8057 9.2207 75.9424 9.23438C76.0837 9.24349 76.1976 9.25716 76.2842 9.27539L76.127 11.2305C76.0586 11.2077 75.9606 11.1917 75.833 11.1826C75.71 11.1689 75.6029 11.1621 75.5117 11.1621C75.2428 11.1621 74.9808 11.1963 74.7256 11.2646C74.4749 11.333 74.2493 11.4447 74.0488 11.5996C73.8483 11.75 73.6888 11.9505 73.5703 12.2012C73.4564 12.4473 73.3994 12.7503 73.3994 13.1104V17H71.3145V9.35742H72.8936L73.2012 10.6426H73.3037C73.4541 10.3828 73.641 10.1458 73.8643 9.93164C74.0921 9.71289 74.3496 9.53971 74.6367 9.41211C74.9284 9.27995 75.2428 9.21387 75.5801 9.21387ZM80.8027 9.2002C81.8281 9.2002 82.6143 9.4235 83.1611 9.87012C83.708 10.3167 83.9814 10.9958 83.9814 11.9072V17H82.5254L82.1221 15.9609H82.0674C81.8486 16.2344 81.6253 16.4577 81.3975 16.6309C81.1696 16.804 80.9076 16.9316 80.6113 17.0137C80.3151 17.0957 79.9551 17.1367 79.5312 17.1367C79.0801 17.1367 78.6745 17.0501 78.3145 16.877C77.959 16.7038 77.6787 16.4395 77.4736 16.084C77.2686 15.724 77.166 15.2682 77.166 14.7168C77.166 13.9056 77.4508 13.3086 78.0205 12.9258C78.5902 12.5384 79.4447 12.3242 80.584 12.2832L81.9102 12.2422V11.9072C81.9102 11.5062 81.8053 11.2122 81.5957 11.0254C81.3861 10.8385 81.0944 10.7451 80.7207 10.7451C80.3516 10.7451 79.9893 10.7975 79.6338 10.9023C79.2783 11.0072 78.9229 11.1393 78.5674 11.2988L77.877 9.89062C78.2826 9.67643 78.736 9.50781 79.2373 9.38477C79.7432 9.26172 80.265 9.2002 80.8027 9.2002ZM81.9102 13.459L81.1035 13.4863C80.429 13.5046 79.9596 13.6253 79.6953 13.8486C79.4355 14.0719 79.3057 14.3659 79.3057 14.7305C79.3057 15.0495 79.3991 15.2773 79.5859 15.4141C79.7728 15.5462 80.0166 15.6123 80.3174 15.6123C80.764 15.6123 81.14 15.4801 81.4453 15.2158C81.7552 14.9515 81.9102 14.5755 81.9102 14.0879V13.459ZM90.4756 9.21387C91.2913 9.21387 91.9476 9.43717 92.4443 9.88379C92.9411 10.3258 93.1895 11.0368 93.1895 12.0166V17H91.1045V12.5361C91.1045 11.9893 91.0042 11.5768 90.8037 11.2988C90.6077 11.0208 90.2979 10.8818 89.874 10.8818C89.236 10.8818 88.8008 11.0983 88.5684 11.5312C88.3359 11.9642 88.2197 12.5885 88.2197 13.4043V17H86.1348V9.35742H87.7275L88.0078 10.335H88.124C88.2881 10.0706 88.4909 9.85645 88.7324 9.69238C88.9785 9.52832 89.2497 9.40755 89.5459 9.33008C89.8467 9.2526 90.1566 9.21387 90.4756 9.21387ZM98.5557 15.4756C98.7835 15.4756 99.0046 15.4528 99.2188 15.4072C99.4375 15.3617 99.654 15.3047 99.8682 15.2363V16.7881C99.6449 16.8883 99.3669 16.9704 99.0342 17.0342C98.7061 17.1025 98.346 17.1367 97.9541 17.1367C97.4984 17.1367 97.0882 17.0638 96.7236 16.918C96.3636 16.7676 96.0788 16.5101 95.8691 16.1455C95.6641 15.7764 95.5615 15.2637 95.5615 14.6074V10.9229H94.5635V10.041L95.7119 9.34375L96.3135 7.73047H97.6465V9.35742H99.7861V10.9229H97.6465V14.6074C97.6465 14.8991 97.7285 15.1178 97.8926 15.2637C98.0612 15.4049 98.2822 15.4756 98.5557 15.4756ZM106.752 14.7305C106.752 15.25 106.629 15.6898 106.383 16.0498C106.141 16.4053 105.779 16.6764 105.296 16.8633C104.813 17.0456 104.211 17.1367 103.491 17.1367C102.958 17.1367 102.5 17.1025 102.117 17.0342C101.739 16.9658 101.356 16.8519 100.969 16.6924V14.9697C101.383 15.1566 101.828 15.3115 102.302 15.4346C102.78 15.5531 103.2 15.6123 103.56 15.6123C103.965 15.6123 104.255 15.5531 104.428 15.4346C104.605 15.3115 104.694 15.152 104.694 14.9561C104.694 14.8285 104.658 14.7145 104.585 14.6143C104.517 14.5094 104.366 14.3932 104.134 14.2656C103.901 14.1335 103.537 13.9626 103.04 13.7529C102.562 13.5524 102.167 13.3496 101.857 13.1445C101.552 12.9395 101.324 12.6979 101.174 12.4199C101.028 12.1374 100.955 11.7796 100.955 11.3467C100.955 10.6403 101.229 10.1094 101.775 9.75391C102.327 9.39388 103.063 9.21387 103.983 9.21387C104.457 9.21387 104.909 9.26172 105.337 9.35742C105.77 9.45312 106.214 9.60579 106.67 9.81543L106.041 11.3193C105.663 11.1553 105.305 11.0208 104.968 10.916C104.635 10.8112 104.296 10.7588 103.949 10.7588C103.644 10.7588 103.414 10.7998 103.259 10.8818C103.104 10.9639 103.026 11.0892 103.026 11.2578C103.026 11.3809 103.065 11.4902 103.143 11.5859C103.225 11.6816 103.38 11.7887 103.607 11.9072C103.84 12.0212 104.179 12.1693 104.626 12.3516C105.059 12.5293 105.435 12.7161 105.754 12.9121C106.073 13.1035 106.319 13.3428 106.492 13.6299C106.665 13.9124 106.752 14.2793 106.752 14.7305Z" fill="black"/>
<path d="M4.91312 10.2282L7.50729 7.63401L1.83312 1.96901C1.39312 1.52901 0.632287 1.64817 0.357287 2.21651C-0.293546 3.58234 -0.0552127 5.25984 1.07229 6.39651L4.91312 10.2282ZM11.1281 8.56901C12.5306 9.21984 14.5015 8.76151 15.959 7.30401C17.7098 5.55317 18.049 3.04151 16.7015 1.69401C15.3631 0.355672 12.8515 0.685672 11.0915 2.43651C9.63395 3.89401 9.17562 5.86484 9.82645 7.26734L1.52145 15.5723C1.35006 15.7437 1.25377 15.9762 1.25377 16.2186C1.25377 16.461 1.35006 16.6934 1.52145 16.8648C1.69285 17.0362 1.92531 17.1325 2.1677 17.1325C2.41009 17.1325 2.64256 17.0362 2.81395 16.8648L8.48812 11.209L14.1531 16.874C14.238 16.9589 14.3387 17.0262 14.4496 17.0721C14.5605 17.1181 14.6794 17.1417 14.7994 17.1417C14.9194 17.1417 15.0382 17.1181 15.1491 17.0721C15.26 17.0262 15.3608 16.9589 15.4456 16.874C15.5305 16.7891 15.5978 16.6884 15.6437 16.5775C15.6897 16.4666 15.7133 16.3478 15.7133 16.2278C15.7133 16.1077 15.6897 15.9889 15.6437 15.878C15.5978 15.7671 15.5305 15.6664 15.4456 15.5815L9.78062 9.91651L11.1281 8.56901V8.56901Z" fill="black"/>
</svg>
