<svg width="19" height="17" viewBox="0 0 19 17" fill="none" xmlns="http://www.w3.org/2000/svg">
<path d="M5.87419 9.85259L8.46989 7.25689L2.79237 1.58855C2.35211 1.14829 1.59083 1.26753 1.31567 1.8362C0.664449 3.20284 0.902923 4.88133 2.03109 6.01866L5.87419 9.85259ZM12.0929 8.19245C13.4962 8.84366 15.4682 8.38506 16.9265 6.9267C18.6784 5.17483 19.0178 2.66168 17.6695 1.31339C16.3304 -0.0257362 13.8172 0.304459 12.0562 2.05633C10.5978 3.51469 10.1392 5.48668 10.7904 6.89001L2.48052 15.1999C2.30902 15.3714 2.21268 15.604 2.21268 15.8465C2.21268 16.0891 2.30902 16.3217 2.48052 16.4932C2.65202 16.6647 2.88462 16.761 3.12715 16.761C3.36969 16.761 3.60229 16.6647 3.77378 16.4932L9.4513 10.834L15.1196 16.5023C15.2046 16.5873 15.3054 16.6546 15.4163 16.7006C15.5273 16.7465 15.6462 16.7702 15.7663 16.7702C15.8864 16.7702 16.0053 16.7465 16.1162 16.7006C16.2272 16.6546 16.328 16.5873 16.4129 16.5023C16.4978 16.4174 16.5652 16.3166 16.6111 16.2057C16.6571 16.0947 16.6807 15.9758 16.6807 15.8557C16.6807 15.7356 16.6571 15.6167 16.6111 15.5058C16.5652 15.3948 16.4978 15.294 16.4129 15.2091L10.7446 9.54074L12.0929 8.19245Z" fill="#333333"/>
</svg>
