<svg width="19" height="18" viewBox="0 0 19 18" fill="none" xmlns="http://www.w3.org/2000/svg">
<path d="M5.42508 10.2282L8.01925 7.63401L2.34508 1.96901C1.90508 1.52901 1.14425 1.64817 0.86925 2.21651C0.218417 3.58234 0.45675 5.25984 1.58425 6.39651L5.42508 10.2282ZM11.6401 8.56901C13.0426 9.21984 15.0134 8.76151 16.4709 7.30401C18.2217 5.55317 18.5609 3.04151 17.2134 1.69401C15.8751 0.355672 13.3634 0.685672 11.6034 2.43651C10.1459 3.89401 9.68758 5.86484 10.3384 7.26734L2.03342 15.5723C1.86202 15.7437 1.76573 15.9762 1.76573 16.2186C1.76573 16.461 1.86202 16.6934 2.03342 16.8648C2.20481 17.0362 2.43728 17.1325 2.67967 17.1325C2.92206 17.1325 3.15452 17.0362 3.32592 16.8648L9.00008 11.209L14.6651 16.874C14.7499 16.9589 14.8507 17.0262 14.9616 17.0721C15.0725 17.1181 15.1913 17.1417 15.3113 17.1417C15.4314 17.1417 15.5502 17.1181 15.6611 17.0721C15.772 17.0262 15.8727 16.9589 15.9576 16.874C16.0424 16.7891 16.1098 16.6884 16.1557 16.5775C16.2016 16.4666 16.2253 16.3478 16.2253 16.2278C16.2253 16.1077 16.2016 15.9889 16.1557 15.878C16.1098 15.7671 16.0424 15.6664 15.9576 15.5815L10.2926 9.91651L11.6401 8.56901Z" fill="white"/>
</svg>
