<svg width="14" height="17" viewBox="0 0 14 17" fill="none" xmlns="http://www.w3.org/2000/svg">
<path d="M1.62476 16.627C1.62476 16.627 0.249756 16.627 0.249756 15.2414C0.249756 13.8559 1.62476 9.6991 7.12478 9.6991C12.6248 9.6991 13.9998 13.8559 13.9998 15.2414C13.9998 16.627 12.6248 16.627 12.6248 16.627H1.62476ZM7.12478 8.31351C8.2188 8.31351 9.26801 7.87557 10.0416 7.09603C10.8152 6.31648 11.2498 5.2592 11.2498 4.15676C11.2498 3.05432 10.8152 1.99703 10.0416 1.21749C9.26801 0.437943 8.2188 0 7.12478 0C6.03076 0 4.98154 0.437943 4.20795 1.21749C3.43436 1.99703 2.99976 3.05432 2.99976 4.15676C2.99976 5.2592 3.43436 6.31648 4.20795 7.09603C4.98154 7.87557 6.03076 8.31351 7.12478 8.31351V8.31351Z" fill="#191919"/>
</svg>
