<svg width="23" height="22" viewBox="0 0 23 22" fill="none" xmlns="http://www.w3.org/2000/svg">
<path d="M20.1166 5.22404H2.64167V4.52504L18.0196 3.2948V4.52504H20.1166V2.42804C20.1166 0.890248 18.871 -0.189005 17.35 0.0276841L3.31271 2.03241C1.79029 2.2505 0.544678 3.68624 0.544678 5.22404V19.204C0.544678 19.9456 0.839255 20.6567 1.36361 21.1811C1.88796 21.7054 2.59913 22 3.34067 22H20.1166C20.8582 22 21.5693 21.7054 22.0937 21.1811C22.618 20.6567 22.9126 19.9456 22.9126 19.204V8.02003C22.9126 7.27849 22.618 6.56732 22.0937 6.04297C21.5693 5.51861 20.8582 5.22404 20.1166 5.22404ZM18.0196 15.0184C17.7442 15.0183 17.4714 14.964 17.2169 14.8585C16.9625 14.753 16.7313 14.5984 16.5365 14.4035C16.3418 14.2087 16.1874 13.9774 16.0821 13.7228C15.9767 13.4683 15.9226 13.1955 15.9226 12.92C15.9227 12.6445 15.9771 12.3718 16.0826 12.1173C16.1881 11.8628 16.3427 11.6316 16.5375 11.4369C16.7324 11.2422 16.9637 11.0878 17.2182 10.9824C17.4728 10.8771 17.7456 10.8229 18.021 10.823C18.5774 10.8232 19.1109 11.0444 19.5041 11.4379C19.8974 11.8314 20.1182 12.3651 20.118 12.9214C20.1178 13.4778 19.8967 14.0112 19.5031 14.4045C19.1096 14.7978 18.576 15.0186 18.0196 15.0184Z" fill="#333333"/>
</svg>
